<svg width="12" height="13" viewBox="0 0 12 13" fill="none" xmlns="http://www.w3.org/2000/svg">
<path d="M6.0849 4.71303C5.65074 4.71303 5.30342 4.33599 5.30342 3.86468V0.848345C5.30342 0.377042 5.65074 0 6.0849 0C6.51905 0 6.86637 0.377042 6.86637 0.848345V3.86468C6.86637 4.33599 6.50168 4.71303 6.0849 4.71303Z" fill="#229FFF"/>
<path d="M4.22667 5.97631C4.12247 6.42876 3.68832 6.69269 3.27153 6.57958L0.579782 5.80664C0.162995 5.69353 -0.0801307 5.22223 0.0240661 4.76977C0.128263 4.31732 0.562416 4.05339 0.979203 4.16651L3.67095 4.93944C4.08774 5.05256 4.33087 5.52386 4.22667 5.97631Z" fill="#229FFF"/>
<path d="M7.76942 5.93835C7.87362 6.3908 8.30777 6.65473 8.72456 6.54161L11.4163 5.76868C11.8331 5.65556 12.0762 5.18426 11.972 4.73181C11.8678 4.27936 11.4337 4.01543 11.0169 4.12854L8.32514 4.90148C7.90835 5.01459 7.64786 5.4859 7.76942 5.93835Z" fill="#229FFF"/>
<path d="M2.29908 12.1029C1.95176 11.8201 1.89966 11.2923 2.16015 10.9152L3.86203 8.53988C4.12253 8.16284 4.60878 8.10628 4.9561 8.38906C5.30342 8.67185 5.35552 9.19971 5.09503 9.57675L3.39315 11.9521C3.13266 12.3292 2.6464 12.3857 2.29908 12.1029Z" fill="#229FFF"/>
<path d="M9.81852 12.0841C10.1658 11.8013 10.2179 11.2734 9.95745 10.8964L8.25557 8.50216C7.99507 8.12512 7.50882 8.06856 7.1615 8.35134C6.81418 8.63413 6.76208 9.16199 7.02257 9.53903L8.72445 11.9144C8.98494 12.3103 9.4712 12.3668 9.81852 12.0841Z" fill="#229FFF"/>
</svg>
